# xmcd
#
# Track frame offsets:
# 150
# 27916
# 47134
# 59842
# 76327
# 95823
# 116567
# 141340
# 154589
# 167168
# 183657
# 194743
# 214484
# 230954
#
# Disc length: 4762 seconds
#
#
# Revision: 0
# Processed by: cddbd v1.5.2PL0 Copyright (c) Steve Scherf et al.
# Submitted via: FreeRIP 2.944 
#
DISCID=dd12980e
DTITLE=Bruno and Marrone - Inéditas
DYEAR=1900
DGENRE=Sertanejo
TTITLE0=Nossa Senhora
TTITLE1=Bijouteria
TTITLE2=Sem Você
TTITLE3=Que Pena
TTITLE4=Cor Do Amor
TTITLE5=Passou da Conta
TTITLE6=Port Pouri
TTITLE7=24 Horas de Amor
TTITLE8=Fio de Cabelo
TTITLE9=Esta Noite Eu Queria Que O MUndo Acabasse
TTITLE10=Morena Proibida
TTITLE11=Nunca mais Caminharei Sozinho
TTITLE12=Rancho do Vale
TTITLE13=Entrevista
EXTD=
EXTT0=
EXTT1=
EXTT2=
EXTT3=
EXTT4=
EXTT5=
EXTT6=
EXTT7=
EXTT8=
EXTT9=
EXTT10=
EXTT11=
EXTT12=
EXTT13=
PLAYORDER=
